<svg width="36" height="36" viewBox="0 0 36 36" fill="none" xmlns="http://www.w3.org/2000/svg">
  <!-- Background Circle -->
  <circle cx="18" cy="18" r="17.5" fill="#B9FF66" stroke="#191A23" stroke-width="1"/>
  
  <!-- Phone Icon -->
  <path d="M12 8C12 7.44772 12.4477 7 13 7H15.5C15.7761 7 16 7.22386 16 7.5V8.5C16 8.77614 15.7761 9 15.5 9H13.5V10.5C13.5 10.7761 13.2761 11 13 11C12.7239 11 12.5 10.7761 12.5 10.5V8.5C12.5 8.22386 12.2761 8 12 8Z" fill="#191A23"/>
  
  <!-- Zero Symbol -->
  <ellipse cx="18" cy="18" rx="8" ry="10" stroke="#191A23" stroke-width="2.5" fill="none"/>
  <path d="M14 15C14 13.8954 14.8954 13 16 13H20C21.1046 13 22 13.8954 22 15V21C22 22.1046 21.1046 23 20 23H16C14.8954 23 14 22.1046 14 21V15Z" fill="none" stroke="#191A23" stroke-width="1.5"/>
  
  <!-- AI Circuit Pattern -->
  <circle cx="13" cy="13" r="1" fill="#191A23"/>
  <circle cx="23" cy="13" r="1" fill="#191A23"/>
  <circle cx="13" cy="23" r="1" fill="#191A23"/>
  <circle cx="23" cy="23" r="1" fill="#191A23"/>
  
  <!-- Connection Lines -->
  <line x1="13" y1="13" x2="15" y2="15" stroke="#191A23" stroke-width="0.5" opacity="0.6"/>
  <line x1="23" y1="13" x2="21" y2="15" stroke="#191A23" stroke-width="0.5" opacity="0.6"/>
  <line x1="13" y1="23" x2="15" y2="21" stroke="#191A23" stroke-width="0.5" opacity="0.6"/>
  <line x1="23" y1="23" x2="21" y2="21" stroke="#191A23" stroke-width="0.5" opacity="0.6"/>
  
  <!-- Center Dot -->
  <circle cx="18" cy="18" r="1.5" fill="#191A23"/>
</svg>
